<svg width="38" height="40" viewBox="0 0 38 40" fill="none" xmlns="http://www.w3.org/2000/svg">
<path fill-rule="evenodd" clip-rule="evenodd" d="M18.74 0C19.0715 0 19.3895 0.131696 19.6239 0.366117C19.8583 0.600537 19.99 0.918479 19.99 1.25C19.99 2.92 19.6675 3.8925 18.83 5.2325C17.9825 6.4725 17.425 7.3825 17.49 8.75C17.455 9.9925 17.83 10.79 18.5325 11.8175C19.5925 13.4175 19.99 14.4125 19.99 16.25C19.99 17.91 19.665 18.875 18.8275 20.1825C17.9775 21.3975 17.4275 22.28 17.49 23.645C17.455 24.8825 17.8325 25.7025 18.5325 26.745C19.5925 28.38 19.99 29.3875 19.99 31.25C19.99 31.5815 19.8583 31.8995 19.6239 32.1339C19.3895 32.3683 19.0715 32.5 18.74 32.5C18.4085 32.5 18.0905 32.3683 17.8561 32.1339C17.6217 31.8995 17.49 31.5815 17.49 31.25C17.525 29.995 17.145 29.1725 16.4425 28.12C15.385 26.4925 14.9925 25.49 14.9925 23.645C14.9925 21.97 15.3175 20.995 16.1575 19.6825C17 18.475 17.5575 17.595 17.49 16.25C17.525 15.025 17.1525 14.23 16.455 13.2125C15.39 11.6075 14.99 10.605 14.99 8.75C14.99 7.08 15.315 6.1075 16.15 4.7675C16.995 3.5275 17.555 2.615 17.49 1.25C17.49 0.918479 17.6217 0.600537 17.8561 0.366117C18.0905 0.131696 18.4085 0 18.74 0ZM3.73999 0C4.07151 0 4.38945 0.131696 4.62387 0.366117C4.85829 0.600537 4.98999 0.918479 4.98999 1.25C4.98999 2.92 4.66749 3.8925 3.82999 5.2325C2.98249 6.4725 2.42499 7.3825 2.48999 8.75C2.45499 9.9925 2.82999 10.79 3.53249 11.8175C4.59249 13.4175 4.98999 14.4125 4.98999 16.25C4.98999 17.91 4.66499 18.875 3.82749 20.1825C2.97749 21.3975 2.42749 22.28 2.48999 23.645C2.45499 24.8825 2.83249 25.7025 3.53249 26.745C4.59249 28.38 4.98999 29.3875 4.98999 31.25C4.98999 31.5815 4.85829 31.8995 4.62387 32.1339C4.38945 32.3683 4.07151 32.5 3.73999 32.5C3.40847 32.5 3.09053 32.3683 2.85611 32.1339C2.62169 31.8995 2.48999 31.5815 2.48999 31.25C2.52499 29.995 2.14499 29.1725 1.44249 28.12C0.38499 26.4925 -0.00750995 25.49 -0.00750995 23.645C-0.00750995 21.97 0.31749 20.995 1.15749 19.6825C1.99999 18.475 2.55749 17.595 2.48999 16.25C2.52499 15.025 2.15249 14.23 1.45499 13.2125C0.38999 11.6075 -0.0100098 10.605 -0.0100098 8.75C-0.0100098 7.08 0.31499 6.1075 1.14999 4.7675C1.99499 3.5275 2.55499 2.615 2.48999 1.25C2.48999 0.918479 2.62169 0.600537 2.85611 0.366117C3.09053 0.131696 3.40847 0 3.73999 0ZM33.74 0C34.0715 0 34.3895 0.131696 34.6239 0.366117C34.8583 0.600537 34.99 0.918479 34.99 1.25C34.99 2.92 34.6675 3.8925 33.83 5.2325C32.9825 6.4725 32.425 7.3825 32.49 8.75C32.455 9.9925 32.83 10.79 33.5325 11.8175C34.5925 13.4175 34.99 14.4125 34.99 16.25C34.99 17.91 34.665 18.875 33.8275 20.1825C32.9775 21.3975 32.4275 22.28 32.49 23.645C32.455 24.8825 32.8325 25.7025 33.5325 26.745C34.5925 28.38 34.99 29.3875 34.99 31.25C34.99 31.5815 34.8583 31.8995 34.6239 32.1339C34.3895 32.3683 34.0715 32.5 33.74 32.5C33.4085 32.5 33.0905 32.3683 32.8561 32.1339C32.6217 31.8995 32.49 31.5815 32.49 31.25C32.525 29.995 32.145 29.1725 31.4425 28.12C30.385 26.4925 29.9925 25.49 29.9925 23.645C29.9925 21.97 30.3175 20.995 31.1575 19.6825C32 18.475 32.5575 17.595 32.49 16.25C32.525 15.025 32.1525 14.23 31.455 13.2125C30.39 11.6075 29.99 10.605 29.99 8.75C29.99 7.08 30.315 6.1075 31.15 4.7675C31.995 3.5275 32.555 2.615 32.49 1.25C32.49 0.918479 32.6217 0.600537 32.8561 0.366117C33.0905 0.131696 33.4085 0 33.74 0ZM36.24 37.5C36.5715 37.5 36.8895 37.6317 37.1239 37.8661C37.3583 38.1005 37.49 38.4185 37.49 38.75C37.49 39.0815 37.3583 39.3995 37.1239 39.6339C36.8895 39.8683 36.5715 40 36.24 40H1.23999C0.908469 40 0.590527 39.8683 0.356106 39.6339C0.121686 39.3995 -0.0100098 39.0815 -0.0100098 38.75C-0.0100098 38.4185 0.121686 38.1005 0.356106 37.8661C0.590527 37.6317 0.908469 37.5 1.23999 37.5H36.24Z" fill="#A3887B"/>
</svg>
