<svg width="49" height="47" viewBox="0 0 49 47" fill="none" xmlns="http://www.w3.org/2000/svg">
<path d="M6.92672 0.935684C7.65609 -0.270879 9.40641 -0.270879 10.1358 0.935684L15.427 9.68725C15.5129 9.82942 15.5595 9.99186 15.5619 10.1579C15.5644 10.324 15.5227 10.4878 15.4411 10.6324C15.3596 10.7771 15.241 10.8975 15.0976 10.9813C14.9542 11.0651 14.7911 11.1094 14.625 11.1094H11.8125V14.8594C11.8125 15.1081 11.7137 15.3465 11.5379 15.5223C11.3621 15.6982 11.1236 15.7969 10.875 15.7969C10.6264 15.7969 10.3879 15.6982 10.2121 15.5223C10.0363 15.3465 9.9375 15.1081 9.9375 14.8594V10.1719C9.9375 9.92329 10.0363 9.68484 10.2121 9.50902C10.3879 9.33321 10.6264 9.23443 10.875 9.23443H12.9628L8.53125 1.90553L4.09969 9.23443H6.42188C6.67052 9.23443 6.90897 9.33321 7.08479 9.50902C7.2606 9.68484 7.35938 9.92329 7.35938 10.1719V19.0782C7.35938 19.3268 7.2606 19.5653 7.08479 19.7411C6.90897 19.9169 6.67052 20.0157 6.42188 20.0157C6.17323 20.0157 5.93478 19.9169 5.75896 19.7411C5.58315 19.5653 5.48438 19.3268 5.48438 19.0782V11.1094H2.4375C2.27129 11.1095 2.10806 11.0654 1.96453 10.9816C1.82099 10.8978 1.70231 10.7773 1.62065 10.6325C1.539 10.4878 1.49729 10.3239 1.49981 10.1577C1.50233 9.99153 1.54899 9.829 1.635 9.68678L6.92672 0.935684ZM25.6045 0.935684C24.8752 -0.270879 23.1248 -0.270879 22.3955 0.935684L17.1047 9.68725C17.0188 9.82939 16.9723 9.99178 16.9698 10.1578C16.9673 10.3239 17.0089 10.4876 17.0905 10.6322C17.172 10.7769 17.2905 10.8973 17.4338 10.9812C17.5772 11.065 17.7402 11.1093 17.9062 11.1094H20.9531V19.0782C20.9531 19.3268 21.0519 19.5653 21.2277 19.7411C21.4035 19.9169 21.642 20.0157 21.8906 20.0157C22.1393 20.0157 22.3777 19.9169 22.5535 19.7411C22.7294 19.5653 22.8281 19.3268 22.8281 19.0782V10.1719C22.8281 9.92329 22.7294 9.68484 22.5535 9.50902C22.3777 9.33321 22.1393 9.23443 21.8906 9.23443H19.5684L24 1.90553L28.4316 9.23443H26.3438C26.0951 9.23443 25.8567 9.33321 25.6808 9.50902C25.505 9.68484 25.4062 9.92329 25.4062 10.1719V14.8594C25.4062 15.1081 25.505 15.3465 25.6808 15.5223C25.8567 15.6982 26.0951 15.7969 26.3438 15.7969C26.5924 15.7969 26.8308 15.6982 27.0067 15.5223C27.1825 15.3465 27.2812 15.1081 27.2812 14.8594V11.1094H30.0938C30.2599 11.1094 30.4231 11.0652 30.5666 10.9814C30.71 10.8975 30.8286 10.7771 30.9102 10.6323C30.9918 10.4876 31.0335 10.3237 31.031 10.1576C31.0284 9.99145 30.9818 9.82896 30.8958 9.68678L25.6045 0.935684ZM41.0733 0.935684C40.3439 -0.270879 38.5936 -0.270879 37.8642 0.935684L32.5734 9.68725C32.4876 9.82939 32.441 9.99178 32.4385 10.1578C32.436 10.3239 32.4777 10.4876 32.5592 10.6322C32.6407 10.7769 32.7592 10.8973 32.9026 10.9812C33.0459 11.065 33.2089 11.1093 33.375 11.1094H36.4219V19.0782C36.4219 19.3268 36.5206 19.5653 36.6965 19.7411C36.8723 19.9169 37.1107 20.0157 37.3594 20.0157C37.608 20.0157 37.8465 19.9169 38.0223 19.7411C38.1981 19.5653 38.2969 19.3268 38.2969 19.0782V10.1719C38.2969 9.92329 38.1981 9.68484 38.0223 9.50902C37.8465 9.33321 37.608 9.23443 37.3594 9.23443H35.0372L39.4688 1.90553L43.9003 9.23443H41.8125C41.5639 9.23443 41.3254 9.33321 41.1496 9.50902C40.9738 9.68484 40.875 9.92329 40.875 10.1719V14.8594C40.875 15.1081 40.9738 15.3465 41.1496 15.5223C41.3254 15.6982 41.5639 15.7969 41.8125 15.7969C42.0611 15.7969 42.2996 15.6982 42.4754 15.5223C42.6512 15.3465 42.75 15.1081 42.75 14.8594V11.1094H45.5625C45.7287 11.1096 45.892 11.0654 46.0355 10.9816C46.1791 10.8979 46.2978 10.7774 46.3794 10.6326C46.461 10.4878 46.5027 10.3239 46.5001 10.1577C46.4975 9.99146 46.4507 9.82894 46.3645 9.68678L41.0733 0.935684ZM6.53906 22.8282C2.97938 22.8282 0.09375 25.7138 0.09375 29.2735C0.09375 32.8332 2.97938 35.7188 6.53906 35.7188H42.2812C44.8702 35.7188 46.9688 37.8174 46.9688 40.4063C46.9688 42.9952 44.8702 45.0938 42.2812 45.0938H1.03125C0.78261 45.0938 0.544153 45.1926 0.368338 45.3684C0.192522 45.5442 0.09375 45.7827 0.09375 46.0313C0.09375 46.2799 0.192522 46.5184 0.368338 46.6942C0.544153 46.87 0.78261 46.9688 1.03125 46.9688H42.2812C45.9056 46.9688 48.8438 44.0307 48.8438 40.4063C48.8438 36.7819 45.9056 33.8438 42.2812 33.8438H6.53906C4.01484 33.8438 1.96875 31.7977 1.96875 29.2735C1.96875 26.7493 4.01484 24.7032 6.53906 24.7032H47.9062C48.1549 24.7032 48.3933 24.6044 48.5692 24.4286C48.745 24.2528 48.8438 24.0143 48.8438 23.7657C48.8438 23.517 48.745 23.2786 48.5692 23.1028C48.3933 22.927 48.1549 22.8282 47.9062 22.8282H6.53906Z" fill="#A3887B"/>
</svg>
