<svg width="58" height="40" viewBox="0 0 58 40" fill="none" xmlns="http://www.w3.org/2000/svg">
<path fill-rule="evenodd" clip-rule="evenodd" d="M41.2721 7.47129C41.2721 7.68885 41.1857 7.8975 41.0319 8.05134C40.878 8.20518 40.6694 8.2916 40.4518 8.2916H17.5483C17.3308 8.2916 17.1221 8.20518 16.9683 8.05134C16.8144 7.8975 16.728 7.68885 16.728 7.47129C16.728 7.25373 16.8144 7.04508 16.9683 6.89124C17.1221 6.7374 17.3308 6.65098 17.5483 6.65098H40.4517C40.5594 6.65096 40.6661 6.67217 40.7656 6.71339C40.8652 6.7546 40.9556 6.81502 41.0318 6.8912C41.108 6.96737 41.1684 7.05781 41.2097 7.15734C41.2509 7.25687 41.2721 7.36355 41.2721 7.47129ZM57.4645 22.4898C57.296 24.7785 55.545 26.5045 53.3918 26.5045H4.60825C2.45493 26.5045 0.70403 24.7785 0.53528 22.4897C-0.107376 13.7916 -0.104681 7.63242 0.543835 3.66012C0.805749 2.05441 1.93333 0.975586 3.34977 0.975586H54.65C56.0662 0.975586 57.1939 2.05441 57.4559 3.66012C58.1046 7.63242 58.1074 13.7916 57.4645 22.4898ZM50.0645 20.235C50.0645 19.6696 49.6045 19.2096 49.0391 19.2096H8.96094C8.39551 19.2096 7.93555 19.6696 7.93555 20.235V24.8639H50.0645V20.235ZM55.837 3.92449C55.7384 3.32098 55.3685 2.61621 54.6501 2.61621H3.34989C2.63141 2.61621 2.26157 3.32098 2.16301 3.92438C1.53559 7.76777 1.53841 13.8009 2.17157 22.369C2.27798 23.8147 3.30278 24.8639 4.60825 24.8639H6.29493V20.235C6.29493 18.765 7.49094 17.569 8.96094 17.569H49.0391C50.5091 17.569 51.7051 18.765 51.7051 20.235V24.8639H53.3919C54.6972 24.8639 55.722 23.8147 55.8284 22.3691C56.4616 13.8011 56.4644 7.76777 55.837 3.92449ZM29 30.2545C28.7824 30.2545 28.5738 30.341 28.42 30.4948C28.2661 30.6486 28.1797 30.8573 28.1797 31.0748V38.2042C28.1797 38.4217 28.2661 38.6304 28.42 38.7842C28.5738 38.9381 28.7824 39.0245 29 39.0245C29.2176 39.0245 29.4262 38.9381 29.5801 38.7842C29.7339 38.6304 29.8203 38.4217 29.8203 38.2042V31.0748C29.8203 30.8573 29.7339 30.6486 29.5801 30.4948C29.4262 30.341 29.2176 30.2545 29 30.2545ZM21.954 30.2552C21.7366 30.2642 21.5317 30.3591 21.3843 30.5191C21.2369 30.6791 21.1591 30.8911 21.168 31.1085C21.2699 33.5914 20.5643 35.9937 19.232 37.6992C19.1374 37.8203 19.0787 37.9655 19.0626 38.1184C19.0465 38.2712 19.0737 38.4254 19.141 38.5636C19.2083 38.7017 19.3131 38.8181 19.4434 38.8996C19.5737 38.9811 19.7242 39.0243 19.8779 39.0244C20.0026 39.0246 20.1258 38.9963 20.2379 38.9416C20.35 38.887 20.4482 38.8074 20.5249 38.709C22.093 36.7016 22.9248 33.9068 22.8072 31.0411C22.7887 30.5885 22.4059 30.2373 21.954 30.2552ZM14.6118 30.2557C14.1601 30.2311 13.7735 30.5798 13.75 31.0322C13.6206 33.5175 12.691 35.871 11.1999 37.4893C11.0919 37.6065 11.0204 37.7526 10.9941 37.9098C10.9678 38.067 10.9878 38.2285 11.0518 38.3745C11.1157 38.5204 11.2208 38.6446 11.3542 38.7318C11.4876 38.8191 11.6435 38.8655 11.8029 38.8656C12.0241 38.8656 12.2447 38.7766 12.4063 38.6011C14.1522 36.7063 15.2393 33.9788 15.3882 31.1177C15.3938 31.0102 15.3782 30.9025 15.3422 30.801C15.3063 30.6994 15.2507 30.606 15.1786 30.5259C15.1065 30.4459 15.0193 30.3808 14.9221 30.3345C14.8248 30.2881 14.7194 30.2613 14.6118 30.2557ZM36.8321 31.1085C36.8398 30.8919 36.7614 30.681 36.6141 30.522C36.4668 30.363 36.2625 30.2688 36.0459 30.2599C35.8294 30.251 35.6181 30.3282 35.4583 30.4746C35.2984 30.621 35.203 30.8247 35.1929 31.0412C35.0752 33.9067 35.9073 36.7016 37.4754 38.7091C37.552 38.8075 37.6502 38.8871 37.7623 38.9417C37.8745 38.9964 37.9976 39.0247 38.1223 39.0245C38.276 39.0244 38.4266 38.9812 38.5568 38.8997C38.6871 38.8182 38.7919 38.7018 38.8592 38.5637C38.9266 38.4256 38.9537 38.2713 38.9377 38.1185C38.9216 37.9657 38.8629 37.8204 38.7683 37.6993C37.4359 35.9936 36.7303 33.5913 36.8321 31.1085ZM44.2502 31.0322C44.2266 30.5797 43.8404 30.2312 43.3884 30.2557C43.1712 30.267 42.9673 30.3642 42.8217 30.5258C42.6761 30.6874 42.6006 30.9003 42.6119 31.1175C42.761 33.9785 43.848 36.7061 45.5939 38.6009C45.6706 38.6844 45.7639 38.751 45.8678 38.7965C45.9716 38.8421 46.0839 38.8655 46.1973 38.8654C46.4032 38.8656 46.6017 38.7881 46.7529 38.6482C46.9128 38.5008 47.0077 38.2958 47.0166 38.0785C47.0255 37.8611 46.9476 37.6491 46.8002 37.4891C45.3093 35.8711 44.3798 33.5175 44.2502 31.0322ZM48.8893 6.35789C48.2762 6.35789 47.776 6.85805 47.776 7.47117C47.776 8.08441 48.2762 8.58445 48.8893 8.58445C49.5025 8.58445 50.0026 8.0843 50.0026 7.47117C50.0026 6.85805 49.5025 6.35789 48.8893 6.35789Z" fill="#A3887B"/>
</svg>
