<svg width="56" height="46" viewBox="0 0 56 46" fill="none" xmlns="http://www.w3.org/2000/svg">
<path d="M1.75 2.8222H54.25C54.7675 2.8222 55.1875 2.40783 55.1875 1.89595C55.1869 1.7735 55.1621 1.65237 55.1147 1.53948C55.0672 1.42659 54.998 1.32417 54.9109 1.23806C54.8238 1.15195 54.7207 1.08384 54.6073 1.03763C54.4939 0.991428 54.3725 0.968026 54.25 0.968767H1.75C1.2325 0.968767 0.8125 1.38314 0.8125 1.89595C0.8125 2.40783 1.2325 2.8222 1.75 2.8222ZM54.25 4.67658H1.75C1.2325 4.67658 0.8125 5.09095 0.8125 5.60377C0.8125 6.11564 1.2325 6.53002 1.75 6.53002H17.9219V13.5322C17.9219 13.7853 18.0109 14.0347 18.1778 14.2381L24.9531 22.3878V22.9831H22.4641C22.1003 22.9831 21.7563 23.1585 21.5453 23.4519C21.3344 23.7453 21.2828 24.1269 21.4038 24.4653L25.0797 30.2553C25.2691 30.6238 25.6553 30.8619 26.0828 30.8619H29.9172C30.3447 30.8619 30.7309 30.6238 30.9203 30.2553L34.5044 24.6519L34.5962 24.4653C34.7181 24.126 34.6647 23.7472 34.4538 23.4528C34.2428 23.1585 33.9006 22.9831 33.535 22.9831H31.0469V22.3878L37.8259 14.2335C37.9891 14.0347 38.0781 13.7863 38.0781 13.5322V6.53002H54.25C54.7675 6.53002 55.1875 6.11564 55.1875 5.60377C55.187 5.48123 55.1624 5.36 55.115 5.247C55.0676 5.13401 54.9983 5.03147 54.9112 4.94526C54.8242 4.85905 54.7209 4.79086 54.6075 4.7446C54.494 4.69833 54.3725 4.67584 54.25 4.67658ZM26.8281 6.53002H29.1719V22.9831H26.8281V6.53002ZM19.7969 13.2669V6.53002H24.9531V19.4685L19.7969 13.2669ZM32.1681 24.8366L29.5 29.0094H26.5L23.8319 24.8375H31.0469L32.1681 24.8366ZM36.2031 13.2669L31.0469 19.4685V6.53095H36.2031V13.2669ZM23.1972 32.7313C23.0786 32.6997 22.9549 32.6918 22.8332 32.708C22.7115 32.7242 22.5942 32.7642 22.488 32.8258C22.3818 32.8873 22.2888 32.9692 22.2142 33.0667C22.1396 33.1642 22.085 33.2755 22.0534 33.3941L21.1159 36.9566C21.0798 37.0945 21.0761 37.2389 21.105 37.3785C21.1338 37.5182 21.1945 37.6492 21.2824 37.7616C21.3702 37.8739 21.4827 37.9644 21.6113 38.0261C21.7398 38.0878 21.8809 38.119 22.0234 38.1172C22.4406 38.1172 22.8203 37.8416 22.9309 37.4235L23.8684 33.861C23.8991 33.7426 23.906 33.6194 23.8888 33.4984C23.8716 33.3774 23.8306 33.261 23.7682 33.1559C23.7058 33.0508 23.6232 32.9591 23.5252 32.886C23.4272 32.813 23.3157 32.761 23.1972 32.7313ZM34.8841 36.9566L33.9466 33.3941C33.8817 33.1552 33.7252 32.9515 33.5111 32.8272C33.2969 32.7029 33.0424 32.6681 32.8028 32.7303C32.6843 32.7601 32.5728 32.813 32.4748 32.886C32.3768 32.9591 32.2942 33.0508 32.2318 33.1559C32.1694 33.261 32.1284 33.3774 32.1112 33.4984C32.094 33.6194 32.1009 33.7426 32.1316 33.861L33.0691 37.4235C33.1328 37.6631 33.2891 37.8676 33.5036 37.992C33.718 38.1165 33.9731 38.1507 34.2128 38.0872C34.3314 38.0575 34.4429 38.0045 34.5409 37.9315C34.6389 37.8585 34.7215 37.7668 34.7839 37.6617C34.8463 37.5566 34.8872 37.4401 34.9044 37.3191C34.9216 37.1981 34.9147 37.0749 34.8841 36.9566ZM28 32.7013C27.4825 32.7013 27.0625 33.1156 27.0625 33.6275V37.19C27.0625 37.7028 27.4825 38.1181 28 38.1181C28.5175 38.1181 28.9375 37.7028 28.9375 37.19V33.6275C28.9368 33.5051 28.9119 33.3841 28.8644 33.2713C28.8169 33.1586 28.7476 33.0562 28.6606 32.9702C28.5735 32.8842 28.4704 32.8162 28.357 32.77C28.2437 32.7239 28.1224 32.7005 28 32.7013ZM21.1591 39.6725C20.9265 39.5863 20.6693 39.5955 20.4435 39.6981C20.2177 39.8006 20.0416 39.9882 19.9534 40.22L18.6203 43.7825C18.5778 43.897 18.5584 44.0187 18.5632 44.1407C18.568 44.2627 18.597 44.3825 18.6484 44.4932C18.6999 44.604 18.7728 44.7034 18.8629 44.7858C18.953 44.8681 19.0585 44.9318 19.1734 44.9731C19.4058 45.0598 19.6631 45.0508 19.8889 44.9482C20.1147 44.8456 20.2906 44.6577 20.3781 44.4256L21.7122 40.8631C21.7547 40.7487 21.7741 40.627 21.7693 40.505C21.7645 40.383 21.7355 40.2631 21.6841 40.1524C21.6326 40.0417 21.5597 39.9423 21.4696 39.8599C21.3795 39.7775 21.274 39.7138 21.1591 39.6725ZM36.0466 40.22C35.959 39.9877 35.7829 39.7997 35.5569 39.697C35.3309 39.5944 35.0734 39.5856 34.8409 39.6725C34.7261 39.7138 34.6205 39.7775 34.5304 39.8599C34.4403 39.9423 34.3674 40.0417 34.3159 40.1524C34.2645 40.2631 34.2355 40.383 34.2307 40.505C34.2259 40.627 34.2453 40.7487 34.2878 40.8631L35.6209 44.4256C35.7085 44.6577 35.8844 44.8456 36.1102 44.9482C36.336 45.0508 36.5932 45.0598 36.8256 44.9731C36.9405 44.9318 37.0461 44.8681 37.1362 44.7858C37.2263 44.7034 37.2992 44.604 37.3506 44.4932C37.4021 44.3825 37.431 44.2627 37.4359 44.1407C37.4407 44.0187 37.4213 43.897 37.3787 43.7825L36.0466 40.22ZM28 39.6144C27.4825 39.6144 27.0625 40.0288 27.0625 40.5416V44.1041C27.0625 44.6169 27.4825 45.0313 28 45.0313C28.5175 45.0313 28.9375 44.6169 28.9375 44.1041V40.5416C28.9369 40.4191 28.9121 40.298 28.8647 40.1851C28.8172 40.0722 28.748 39.9698 28.6609 39.8837C28.5739 39.7976 28.4707 39.7295 28.3573 39.6833C28.2439 39.6371 28.1225 39.6137 28 39.6144Z" fill="#A3887B"/>
</svg>
