<svg width="60" height="44" viewBox="0 0 60 44" fill="none" xmlns="http://www.w3.org/2000/svg">
<path d="M58.9453 0.244629H1.05469C0.774967 0.244629 0.506703 0.355747 0.308911 0.553539C0.111119 0.751331 0 1.0196 0 1.29932L0 7.30189C0 10.1901 1.7448 12.6773 4.23516 13.7684V17.9902C4.23516 24.845 6.92274 31.3076 11.8027 36.1876C16.6826 41.0675 23.1452 43.7551 30 43.7551C36.8548 43.7551 43.3174 41.0675 48.1973 36.1876C53.0773 31.3076 55.7648 24.845 55.7648 17.9902V13.7684C58.2551 12.6774 60 10.1902 60 7.30189V1.29932C60 1.0196 59.8889 0.751331 59.6911 0.553539C59.4933 0.355747 59.225 0.244629 58.9453 0.244629ZM53.6555 17.9902C53.6555 31.034 43.0437 41.6457 30 41.6457C16.9563 41.6457 6.34453 31.034 6.34453 17.9902V14.3231C6.57891 14.3466 6.81668 14.3589 7.05727 14.3589H52.943C53.1836 14.3589 53.4212 14.3466 53.6557 14.3231V17.9902H53.6555ZM57.8906 7.30189C57.8906 10.03 55.6711 12.2497 52.9429 12.2497H7.05715C4.32891 12.2497 2.10938 10.03 2.10938 7.30189V2.354H57.8906V7.30189ZM30 22.2633C25.0931 22.2633 21.1011 26.2553 21.1011 31.1623C21.1011 36.0691 25.0931 40.0612 30 40.0612C34.9069 40.0612 38.8989 36.0692 38.8989 31.1623C38.8989 26.2553 34.9069 22.2633 30 22.2633ZM30 37.9517C26.2562 37.9517 23.2105 34.906 23.2105 31.1622C23.2105 27.4184 26.2562 24.3726 30 24.3726C33.7437 24.3726 36.7895 27.4183 36.7895 31.1622C36.7895 34.906 33.7438 37.9517 30 37.9517ZM30 26.3726C27.3591 26.3726 25.2104 28.5212 25.2104 31.1621C25.2104 33.803 27.3589 35.9517 30 35.9517C32.6409 35.9517 34.7895 33.803 34.7895 31.1621C34.7895 28.5212 32.6409 26.3726 30 26.3726ZM30 33.8424C28.5221 33.8424 27.3198 32.6401 27.3198 31.1622C27.3198 29.6845 28.5221 28.4821 30 28.4821C31.4779 28.4821 32.6801 29.6845 32.6801 31.1622C32.6802 32.6401 31.4779 33.8424 30 33.8424ZM45.9982 17.2388C44.1111 17.2388 42.5759 18.7741 42.5759 20.6612C42.5759 22.5482 44.1111 24.0835 45.9982 24.0835C47.8854 24.0835 49.4207 22.5482 49.4207 20.6612C49.4207 18.7741 47.8853 17.2388 45.9982 17.2388ZM45.9982 21.9741C45.2742 21.9741 44.6852 21.3851 44.6852 20.6612C44.6852 19.9372 45.2742 19.3482 45.9982 19.3482C46.7222 19.3482 47.3113 19.9372 47.3113 20.6612C47.3113 21.3851 46.7222 21.9741 45.9982 21.9741Z" fill="#A3887B"/>
</svg>
